<svg xmlns="http://www.w3.org/2000/svg" width="51" height="21" fill="none" xmlns:v="https://vecta.io/nano"><path fill-rule="evenodd" d="M50.124 0H0v3.864h2.098l4.663 16.383h36.602l4.663-16.383h2.098V0zm-7.922 4.198a.93.93 0 0 1 .928.928v3.329a.93.93 0 0 1-.928.928.93.93 0 0 1-.928-.928V5.126a.93.93 0 0 1 .928-.928zm-2.785.928a.93.93 0 0 0-.928-.928.93.93 0 0 0-.928.928v3.329a.93.93 0 0 0 .928.928.93.93 0 0 0 .928-.928V5.126zm-4.873-.928a.93.93 0 0 1 .928.928v3.329a.93.93 0 0 1-.928.928.93.93 0 0 1-.928-.928V5.126a.93.93 0 0 1 .928-.928zm-2.785.928a.93.93 0 0 0-.928-.928.93.93 0 0 0-.928.928v3.329a.93.93 0 0 0 .928.928.93.93 0 0 0 .928-.928V5.126zm-4.641-.928a.93.93 0 0 1 .928.928v3.329a.93.93 0 0 1-.928.928.93.93 0 0 1-.928-.928V5.126a.93.93 0 0 1 .928-.928zm-3.017.928a.93.93 0 0 0-.928-.928.93.93 0 0 0-.928.928v3.329a.93.93 0 0 0 .928.928.93.93 0 0 0 .928-.928V5.126zm-4.641-.928a.93.93 0 0 1 .928.928v3.329a.93.93 0 0 1-.928.928.93.93 0 0 1-.928-.928V5.126a.93.93 0 0 1 .928-.928zm-2.785.928a.93.93 0 0 0-.928-.928.93.93 0 0 0-.928.928v3.329a.93.93 0 0 0 .928.928.93.93 0 0 0 .928-.928V5.126zm-4.873-.928a.93.93 0 0 1 .928.928v3.329a.93.93 0 0 1-.928.928.93.93 0 0 1-.928-.928V5.126a.93.93 0 0 1 .928-.928zm-2.784.928a.93.93 0 0 0-.928-.928.93.93 0 0 0-.928.928v3.329a.93.93 0 0 0 .928.928.93.93 0 0 0 .928-.928V5.126zm31.562 6.692c.515 0 .933.418.933.933v3.135c0 .515-.418.933-.933.933s-.933-.418-.933-.933v-3.135c0-.515.418-.933.933-.933zm-2.908.933c0-.515-.417-.933-.932-.933s-.933.418-.933.933v3.135c0 .515.418.933.933.933s.932-.418.932-.933v-3.135zm-4.773-.933c.515 0 .933.418.933.933v3.135c0 .515-.417.933-.933.933s-.933-.418-.933-.933v-3.135c0-.515.418-.933.933-.933zm-2.908.933c0-.515-.418-.933-.933-.933s-.933.418-.933.933v3.135c0 .515.418.933.933.933s.933-.418.933-.933v-3.135zm-4.773-.933c.515 0 .932.418.932.933v3.135c0 .515-.418.933-.932.933s-.933-.418-.933-.933v-3.135c0-.515.418-.933.933-.933zm-2.908.933c0-.515-.418-.933-.933-.933s-.932.418-.932.933v3.135c0 .515.417.933.932.933s.933-.418.933-.933v-3.135zm-4.773-.933c.515 0 .933.418.933.933v3.135c0 .515-.418.933-.933.933s-.933-.418-.933-.933v-3.135c0-.515.418-.933.933-.933zm-2.908.933c0-.515-.418-.933-.932-.933s-.933.418-.933.933v3.135c0 .515.418.933.933.933s.932-.418.932-.933v-3.135zm-4.773-.933c.515 0 .932.418.932.933v3.135c0 .515-.417.933-.932.933s-.933-.418-.933-.933v-3.135c0-.515.418-.933.933-.933z" fill="#fff"/></svg>